<?xml version="1.0" encoding="UTF-8"?>
<svg width="400" height="400" viewBox="0 0 400 400" fill="none" xmlns="http://www.w3.org/2000/svg">
  <!-- 背景 -->
  <defs>
    <linearGradient id="bg-gradient" x1="0" y1="0" x2="400" y2="400" gradientUnits="userSpaceOnUse">
      <stop offset="0%" stop-color="#e8f5ff"/>
      <stop offset="100%" stop-color="#f0fff4"/>
    </linearGradient>
  </defs>
  <rect width="400" height="400" fill="url(#bg-gradient)" rx="20"/>

  <!-- AI芯片图案 -->
  <g transform="translate(180, 100)">
    <rect x="-30" y="-30" width="100" height="100" rx="10" fill="#3eaf7c" opacity="0.1"/>
    <path d="M-20 0h80M20 -20v80M0 -20v80M40 -20v80" stroke="#3eaf7c" stroke-width="2" opacity="0.3"/>
    <path d="M-20 20h80M-20 40h80M-20 -20h80" stroke="#3eaf7c" stroke-width="2" opacity="0.3"/>
    <!-- 中心点 -->
    <circle cx="20" cy="20" r="5" fill="#3eaf7c"/>
  </g>

  <!-- 生长的小苗 -->
  <g transform="translate(200, 250)">
    <!-- 茎干 -->
    <path d="M0 0c0-30 0-60 0-90" stroke="#42b983" stroke-width="4" stroke-linecap="round">
      <animate attributeName="d" 
               dur="3s"
               values="M0 0c0-30 0-60 0-90;M0 0c-10-30 10-60 0-90;M0 0c0-30 0-60 0-90"
               repeatCount="indefinite"/>
    </path>
    
    <!-- 叶子 -->
    <g>
      <!-- 左叶 -->
      <path d="M0 -40c-20-10 -25-20 -20-30s15-10 20-5" fill="#42b983">
        <animate attributeName="d" 
                 dur="3s"
                 values="M0 -40c-20-10 -25-20 -20-30s15-10 20-5;M0 -40c-25-15 -30-25 -25-35s20-10 25-5;M0 -40c-20-10 -25-20 -20-30s15-10 20-5"
                 repeatCount="indefinite"/>
      </path>
      <!-- 右叶 -->
      <path d="M0 -40c20-10 25-20 20-30s-15-10 -20-5" fill="#42b983">
        <animate attributeName="d" 
                 dur="3s"
                 values="M0 -40c20-10 25-20 20-30s-15-10 -20-5;M0 -40c25-15 30-25 25-35s-20-10 -25-5;M0 -40c20-10 25-20 20-30s-15-10 -20-5"
                 repeatCount="indefinite"/>
      </path>
    </g>
    
    <!-- 顶部新芽 -->
    <circle cx="0" cy="-90" r="8" fill="#4CAF50">
      <animate attributeName="r"
               dur="2s"
               values="8;10;8"
               repeatCount="indefinite"/>
    </circle>
  </g>

  <!-- 数字连接线 -->
  <g stroke="#3eaf7c" stroke-width="1" opacity="0.2">
    <path d="M50 50l300 300" />
    <path d="M350 50l-300 300" />
    <path d="M200 0v400" />
    <path d="M0 200h400" />
  </g>

  <!-- 装饰性圆点 -->
  <g fill="#42b983" opacity="0.3">
    <circle cx="50" cy="50" r="4" />
    <circle cx="350" cy="50" r="4" />
    <circle cx="50" cy="350" r="4" />
    <circle cx="350" cy="350" r="4" />
  </g>
</svg> 