<?xml version="1.0" encoding="UTF-8"?>
<svg width="800" height="400" viewBox="0 0 800 400" fill="none" xmlns="http://www.w3.org/2000/svg">
    <!-- 科技感背景网格 -->
    <defs>
        <pattern id="grid" width="40" height="40" patternUnits="userSpaceOnUse">
            <path d="M 40 0 L 0 0 0 40" fill="none" stroke="#2C5F4E" stroke-width="0.5" opacity="0.2"/>
        </pattern>
        <linearGradient id="bgGradient" x1="0%" y1="0%" x2="100%" y2="100%">
            <stop offset="0%" style="stop-color:#1a2a3a;stop-opacity:1" />
            <stop offset="100%" style="stop-color:#2d4b5a;stop-opacity:1" />
        </linearGradient>
        <!-- 发光效果 -->
        <filter id="glow">
            <feGaussianBlur stdDeviation="4" result="coloredBlur"/>
            <feMerge>
                <feMergeNode in="coloredBlur"/>
                <feMergeNode in="SourceGraphic"/>
            </feMerge>
        </filter>
        <!-- AI光环效果 -->
        <filter id="aiGlow" x="-50%" y="-50%" width="200%" height="200%">
            <feGaussianBlur stdDeviation="8" result="blur"/>
            <feComposite in="SourceGraphic" in2="blur" operator="over"/>
        </filter>
    </defs>

    <!-- 渐变背景 -->
    <rect width="800" height="400" fill="url(#bgGradient)"/>
    
    <!-- 科技网格 -->
    <rect width="800" height="400" fill="url(#grid)"/>

    <!-- 装饰性圆环 -->
    <circle cx="600" cy="100" r="80" stroke="#4DB6AC" stroke-width="3" fill="none" opacity="0.3"/>
    <circle cx="200" cy="300" r="100" stroke="#81C784" stroke-width="3" fill="none" opacity="0.3"/>

    <!-- 科技线条装饰 -->
    <path d="M0 200 Q 200 150, 400 200 T 800 200" stroke="#64B5F6" stroke-width="3" fill="none" opacity="0.3"/>
    <path d="M0 220 Q 200 170, 400 220 T 800 220" stroke="#4DB6AC" stroke-width="3" fill="none" opacity="0.3"/>

    <!-- AI机器人 -->
    <g transform="translate(500, 200)" filter="url(#aiGlow)">
        <!-- 机器人头部 -->
        <rect x="-40" y="-60" width="80" height="80" rx="15" fill="#42A5F5" opacity="0.9"/>
        <!-- 机器人眼睛 -->
        <circle cx="-15" cy="-30" r="8" fill="#ffffff"/>
        <circle cx="15" cy="-30" r="8" fill="#ffffff"/>
        <!-- 机器人天线 -->
        <path d="M-20 -60 L-30 -80 L-25 -85" stroke="#42A5F5" stroke-width="4"/>
        <path d="M20 -60 L30 -80 L25 -85" stroke="#42A5F5" stroke-width="4"/>
        <!-- 机器人身体 -->
        <rect x="-30" y="20" width="60" height="80" rx="10" fill="#42A5F5" opacity="0.9"/>
        <!-- 机器人手臂 -->
        <path d="M-30 30 C-60 30, -70 60, -60 90" stroke="#42A5F5" stroke-width="8" fill="none"/>
        <path d="M30 30 C60 30, 70 60, 60 90" stroke="#42A5F5" stroke-width="8" fill="none"/>
    </g>

    <!-- 茁壮的植物 -->
    <g transform="translate(300, 200)" filter="url(#glow)">
        <!-- 主干 -->
        <path d="M0 150 C-20 100, 20 50, 0 0" stroke="#2E7D32" stroke-width="20" fill="none"/>
        
        <!-- 左侧叶子组 -->
        <path d="M-10 120 C-60 100, -80 60, -60 20" stroke="#388E3C" stroke-width="15" fill="#388E3C"/>
        <path d="M-5 80 C-70 60, -90 20, -70 -20" stroke="#43A047" stroke-width="15" fill="#43A047"/>
        <path d="M-5 40 C-50 20, -70 -20, -50 -40" stroke="#4CAF50" stroke-width="15" fill="#4CAF50"/>
        
        <!-- 右侧叶子组 -->
        <path d="M10 120 C60 100, 80 60, 60 20" stroke="#388E3C" stroke-width="15" fill="#388E3C"/>
        <path d="M5 80 C70 60, 90 20, 70 -20" stroke="#43A047" stroke-width="15" fill="#43A047"/>
        <path d="M5 40 C50 20, 70 -20, 50 -40" stroke="#4CAF50" stroke-width="15" fill="#4CAF50"/>
        
        <!-- 顶部新芽 -->
        <path d="M0 0 C-15 -20, 15 -20, 0 -40" stroke="#66BB6A" stroke-width="12" fill="#66BB6A"/>
        <circle cx="0" cy="-40" r="10" fill="#81C784"/>
    </g>

    <!-- 连接线 - 表示AI与植物的互动 -->
    <g opacity="0.6">
        <path d="M380 160 C 420 140, 460 140, 500 160" stroke="#64B5F6" stroke-width="3" fill="none">
            <animate attributeName="opacity" values="0.2;0.8;0.2" dur="3s" repeatCount="indefinite"/>
        </path>
        <path d="M380 180 C 420 160, 460 160, 500 180" stroke="#4DB6AC" stroke-width="3" fill="none">
            <animate attributeName="opacity" values="0.8;0.2;0.8" dur="3s" repeatCount="indefinite"/>
        </path>
    </g>

    <!-- 装饰性粒子 -->
    <g>
        <circle cx="100" cy="100" r="4" fill="#FFB74D">
            <animate attributeName="opacity" values="0.3;1;0.3" dur="2s" repeatCount="indefinite"/>
        </circle>
        <circle cx="700" cy="300" r="4" fill="#FFB74D">
            <animate attributeName="opacity" values="1;0.3;1" dur="2s" repeatCount="indefinite"/>
        </circle>
        <circle cx="200" cy="200" r="4" fill="#FFB74D">
            <animate attributeName="opacity" values="0.3;1;0.3" dur="3s" repeatCount="indefinite"/>
        </circle>
        <circle cx="600" cy="150" r="4" fill="#FFB74D">
            <animate attributeName="opacity" values="1;0.3;1" dur="3s" repeatCount="indefinite"/>
        </circle>
    </g>

    <!-- 科技感六边形装饰 -->
    <g opacity="0.4">
        <path d="M700 100 L730 115 L730 145 L700 160 L670 145 L670 115 Z" stroke="#4DB6AC" stroke-width="2" fill="none"/>
        <path d="M100 300 L130 315 L130 345 L100 360 L70 345 L70 315 Z" stroke="#81C784" stroke-width="2" fill="none"/>
    </g>
</svg> 